<?xml version="1.0" standalone="no"?>
<!DOCTYPE svg PUBLIC "-//W3C//DTD SVG 20010904//EN"
 "http://www.w3.org/TR/2001/REC-SVG-20010904/DTD/svg10.dtd">
<svg version="1.0" xmlns="http://www.w3.org/2000/svg"
 width="763.000000pt" height="763.000000pt" viewBox="0 0 763.000000 763.000000"
 preserveAspectRatio="xMidYMid meet">
<metadata>
Created by potrace 1.14, written by Peter Selinger 2001-2017
</metadata>
<g transform="translate(0.000000,763.000000) scale(0.100000,-0.100000)"
fill="#000000" stroke="none">
<path d="M3870 6349 c0 -11 -9 -15 -36 -14 -26 2 -34 -1 -30 -12 4 -11 1 -11
-14 -3 -16 9 -20 8 -20 -5 0 -10 -7 -15 -17 -13 -10 2 -17 -1 -16 -7 1 -5 -10
-10 -23 -10 -13 0 -24 3 -24 8 0 4 -5 7 -11 7 -5 0 -8 -4 -4 -9 3 -5 0 -13 -6
-17 -8 -5 -9 -3 -4 6 6 9 2 10 -15 5 -17 -5 -21 -4 -15 5 6 9 4 11 -6 4 -20
-12 -40 -14 -33 -3 3 5 9 7 13 5 4 -3 8 1 8 9 0 17 -18 6 -50 -30 -13 -14 -17
-15 -14 -4 3 9 -4 21 -15 28 -14 9 -18 9 -13 1 6 -9 2 -9 -14 -1 -11 7 -21 8
-22 4 0 -4 -4 1 -9 12 -8 18 -9 19 -9 1 -1 -12 -6 -16 -16 -12 -8 3 -15 0 -16
-7 0 -7 -4 -3 -9 8 -5 11 -9 14 -9 8 -1 -7 -6 -13 -12 -13 -5 0 -7 5 -3 12 5
7 3 8 -7 2 -19 -12 -41 -11 -58 1 -12 8 -13 7 -6 -4 6 -11 3 -13 -13 -9 -12 3
-21 3 -20 -1 2 -18 -4 -22 -17 -11 -13 11 -14 10 -10 -2 4 -10 -7 -21 -37 -34
-23 -10 -46 -20 -50 -20 -4 -1 -9 -2 -10 -4 -10 -7 -39 -7 -44 1 -3 5 -10 9
-15 9 -6 0 -8 -4 -5 -9 4 -5 -9 -6 -29 -1 -20 4 -38 4 -41 -1 -3 -5 -10 -7
-15 -4 -5 4 -9 0 -9 -7 0 -8 -3 -9 -8 -3 -11 16 -32 16 -26 1 6 -16 -27 -17
-38 -1 -5 7 -10 7 -15 0 -5 -5 -17 -17 -27 -25 -18 -13 -19 -13 -12 0 4 8 -1
5 -12 -7 -11 -12 -22 -19 -26 -16 -3 4 -6 -2 -7 -13 0 -10 -3 -14 -6 -7 -3 8
-12 4 -27 -12 -18 -19 -25 -22 -36 -12 -8 8 -11 8 -7 1 4 -7 -1 -18 -10 -25
-9 -8 -14 -9 -10 -3 3 6 0 11 -7 11 -8 0 -12 -6 -9 -13 2 -6 -1 -15 -8 -20 -8
-4 -10 -3 -5 4 4 7 3 12 -2 12 -6 0 -13 -7 -16 -16 -3 -8 -10 -12 -16 -9 -6 3
-13 -1 -16 -9 -3 -9 -10 -13 -15 -10 -5 3 -9 -2 -9 -11 0 -9 -4 -13 -10 -10
-9 6 -14 -8 -11 -28 1 -5 -3 -6 -9 -2 -13 8 -42 -20 -32 -30 4 -5 2 -5 -5 -1
-6 3 -18 -3 -26 -14 -7 -11 -16 -17 -19 -14 -4 3 -9 -4 -13 -17 -6 -17 -9 -19
-16 -8 -7 11 -9 11 -9 -3 0 -9 -5 -20 -12 -24 -7 -5 -8 -3 -3 6 5 9 4 11 -3 6
-7 -4 -12 -14 -12 -22 0 -8 -3 -13 -7 -11 -10 6 -34 -19 -26 -27 4 -3 -1 -6
-10 -6 -10 0 -17 -4 -17 -10 0 -5 -7 -10 -16 -10 -8 0 -12 -5 -9 -10 3 -6 -1
-13 -9 -16 -9 -3 -13 -10 -10 -15 3 -5 -2 -9 -11 -9 -9 0 -14 -4 -10 -9 3 -6
-3 -14 -12 -20 -10 -6 -14 -11 -9 -11 5 0 -7 -15 -27 -34 -28 -26 -33 -36 -24
-46 9 -10 9 -11 0 -6 -6 3 -14 2 -18 -4 -3 -5 -1 -10 4 -10 6 0 3 -8 -6 -18
-10 -11 -22 -17 -27 -14 -5 3 -6 0 -2 -6 3 -6 -1 -17 -10 -26 -8 -9 -16 -25
-17 -36 -1 -11 -5 -20 -9 -20 -11 0 -38 -56 -30 -64 3 -4 -2 -4 -12 0 -14 5
-17 3 -14 -7 3 -8 -2 -20 -11 -27 -12 -10 -13 -12 -1 -6 12 7 13 5 3 -8 -7 -8
-10 -18 -6 -21 3 -4 1 -7 -6 -7 -8 0 -11 -8 -8 -20 3 -10 0 -21 -5 -22 -6 -2
-10 -16 -10 -31 0 -15 -5 -27 -11 -27 -6 0 -7 -3 -4 -7 4 -3 2 -12 -4 -20 -9
-10 -8 -13 2 -13 10 -1 9 -4 -3 -11 -10 -5 -15 -16 -12 -24 4 -8 2 -15 -4 -15
-6 0 -9 -8 -8 -17 2 -10 -2 -21 -8 -25 -7 -5 -7 -8 2 -8 10 0 9 -4 -3 -16 -12
-12 -13 -19 -4 -30 9 -11 8 -15 -5 -20 -10 -4 -15 -14 -12 -30 3 -13 1 -24 -4
-24 -5 0 -7 -7 -4 -15 4 -8 1 -15 -6 -15 -6 0 -8 -4 -5 -10 3 -5 3 -10 -2 -10
-4 0 -9 -10 -10 -23 -2 -23 -10 -60 -13 -64 -2 -2 -4 -12 -5 -23 -1 -11 -3
-21 -4 -22 -3 -3 -9 -34 -14 -68 -2 -11 -6 -23 -10 -26 -12 -12 -8 -26 6 -18
10 6 10 4 0 -7 -7 -7 -13 -22 -13 -34 0 -12 -5 -26 -12 -33 -9 -9 -9 -12 1
-12 11 0 11 -3 1 -15 -7 -9 -10 -18 -7 -22 4 -3 2 -13 -3 -23 -6 -12 -4 -24 7
-40 9 -13 11 -20 5 -16 -8 5 -12 -4 -12 -28 0 -19 -6 -36 -12 -39 -10 -3 -10
-7 -1 -19 7 -8 10 -17 7 -21 -11 -11 -12 -62 0 -76 8 -11 8 -13 0 -8 -7 4 -15
0 -18 -8 -3 -9 1 -18 9 -21 8 -4 12 -11 8 -17 -11 -18 -11 -67 1 -67 6 0 4 -5
-4 -10 -13 -9 -13 -10 0 -10 13 0 13 -1 0 -10 -8 -5 -10 -10 -4 -10 6 0 10
-21 10 -50 -1 -28 4 -50 9 -50 6 0 3 -5 -5 -10 -8 -5 -10 -10 -5 -10 6 0 9
-22 8 -50 -2 -34 2 -50 10 -50 9 0 8 -3 -1 -9 -17 -11 -17 -21 0 -32 11 -7 11
-9 -1 -9 -10 0 -11 -3 -2 -13 8 -10 7 -17 -1 -25 -7 -7 -8 -12 -2 -12 5 0 10
-19 11 -42 2 -23 9 -45 15 -50 9 -5 9 -8 1 -8 -11 0 -14 -110 -3 -110 3 0 6
-17 7 -38 3 -35 9 -74 13 -79 2 -2 4 -7 5 -13 1 -5 4 -13 5 -17 1 -5 2 -16 1
-25 -1 -10 4 -18 11 -18 8 0 9 -3 3 -8 -13 -9 -18 -32 -7 -32 4 0 9 -17 11
-37 6 -70 9 -98 11 -98 3 0 11 -59 12 -92 0 -19 5 -30 10 -27 6 4 6 -1 0 -13
-7 -12 -7 -25 -1 -36 6 -9 9 -23 8 -29 -3 -28 1 -39 14 -32 9 6 9 4 -1 -8 -11
-14 -10 -18 5 -27 15 -9 15 -12 4 -20 -9 -6 -10 -11 -2 -15 6 -4 9 -12 6 -17
-4 -5 -1 -9 6 -9 7 0 10 -3 7 -6 -4 -3 2 -36 13 -72 11 -37 21 -78 24 -90 2
-13 9 -30 15 -37 7 -8 8 -20 4 -26 -4 -8 -3 -9 4 -5 11 6 14 0 11 -20 0 -4 5
-11 13 -15 11 -7 10 -9 -1 -9 -12 0 -11 -3 1 -17 8 -10 16 -25 17 -33 1 -19 9
-63 11 -70 1 -3 2 -8 1 -12 0 -5 3 -8 8 -8 5 0 7 -9 4 -20 -3 -12 0 -20 7 -20
9 0 10 -4 2 -13 -8 -10 -6 -17 8 -27 14 -10 16 -17 8 -27 -7 -9 -7 -13 1 -13
6 0 11 -9 11 -20 0 -11 5 -20 11 -20 6 0 9 -7 5 -15 -3 -8 0 -14 7 -12 7 1 11
-6 9 -17 -3 -15 -1 -16 11 -5 8 8 12 19 8 24 -4 6 -7 21 -6 35 1 14 -5 38 -13
54 -9 19 -10 26 -2 21 9 -6 9 -2 0 15 -10 18 -9 24 1 31 8 5 9 9 3 9 -6 0 -11
6 -12 13 -2 22 -7 42 -15 55 -5 6 -6 16 -3 21 3 5 -1 11 -9 15 -9 3 -12 12 -8
22 3 9 0 20 -8 25 -8 5 -9 9 -2 9 13 0 5 41 -11 52 -7 5 -8 8 0 8 6 0 10 23 9
55 0 30 3 55 8 55 4 0 5 4 2 10 -9 15 2 12 19 -6 9 -8 16 -27 16 -40 0 -17 4
-23 12 -18 8 5 9 0 5 -15 -3 -15 0 -24 10 -28 12 -5 12 -7 1 -14 -10 -7 -11
-9 0 -9 7 0 10 -5 7 -10 -3 -6 1 -13 9 -16 9 -3 16 -10 16 -16 0 -5 -6 -6 -12
-3 -7 4 -5 0 4 -8 10 -8 15 -17 11 -20 -3 -4 -1 -7 5 -7 7 0 12 -7 12 -15 0
-8 5 -15 10 -15 6 0 10 -9 10 -20 0 -11 6 -20 13 -20 8 0 7 -4 -3 -10 -11 -7
-11 -10 -2 -10 7 0 10 -4 7 -10 -3 -6 -1 -10 5 -10 6 0 9 -4 6 -9 -4 -5 0 -12
6 -14 10 -4 9 -6 -1 -6 -9 -1 -6 -8 9 -21 13 -11 17 -20 10 -20 -8 0 -4 -8 8
-19 12 -10 19 -21 15 -25 -3 -3 -1 -6 5 -6 6 0 14 -10 17 -21 6 -17 9 -19 16
-8 7 11 9 10 9 -4 0 -12 4 -16 13 -11 7 5 6 0 -3 -11 -8 -10 -10 -16 -3 -12 7
4 16 -5 25 -23 7 -16 16 -30 20 -30 5 0 7 -3 7 -7 -4 -22 2 -33 13 -27 8 5 9
2 5 -9 -3 -10 -2 -17 4 -17 6 0 7 -4 4 -10 -3 -5 -1 -10 5 -10 6 0 8 -5 4 -12
-4 -7 -3 -8 4 -4 8 5 9 13 3 24 -4 9 -7 25 -6 35 2 9 -1 17 -6 17 -5 0 -9 9
-9 20 0 11 -4 20 -10 20 -5 0 -9 3 -8 8 4 14 -13 52 -24 52 -5 0 -8 7 -4 15 3
8 1 15 -4 15 -6 0 -10 7 -10 15 0 8 -4 15 -10 15 -5 0 -10 5 -10 11 0 5 6 7
13 3 6 -4 3 2 -7 14 -11 12 -16 22 -12 22 4 0 0 7 -8 16 -9 8 -14 20 -11 25 4
5 1 9 -6 9 -7 0 -9 3 -6 7 4 3 -1 15 -10 26 -11 13 -12 17 -4 12 11 -6 13 -4
7 11 -5 10 -11 27 -13 37 -3 9 -10 17 -17 17 -6 0 -4 5 4 10 9 6 10 10 3 10
-11 0 -13 7 -13 55 0 59 1 60 20 25 11 -19 19 -43 20 -52 0 -10 5 -18 10 -18
6 0 10 -8 10 -18 0 -10 6 -24 13 -31 9 -11 9 -12 0 -7 -9 5 -11 2 -7 -8 3 -9
10 -16 16 -16 5 0 7 -4 4 -9 -4 -5 0 -12 6 -14 10 -4 10 -6 0 -6 -10 -1 -10
-5 2 -17 9 -8 14 -19 11 -24 -3 -4 2 -11 11 -14 8 -3 12 -10 9 -16 -3 -5 -1
-10 4 -10 6 0 11 -7 11 -15 0 -8 5 -15 11 -15 5 0 7 -4 4 -10 -3 -6 -1 -10 5
-10 6 0 8 -5 5 -10 -3 -5 1 -10 9 -10 10 0 13 -6 10 -15 -4 -8 1 -17 10 -21 9
-3 14 -10 11 -14 -3 -4 2 -11 11 -14 8 -3 12 -10 9 -16 -3 -5 -1 -10 4 -10 6
0 11 -7 11 -16 0 -8 4 -13 8 -10 8 5 11 -19 11 -89 0 -58 -1 -65 -12 -65 -5 0
-4 -6 2 -13 11 -14 5 -27 -11 -27 -5 0 -7 4 -3 9 3 5 1 12 -4 15 -5 4 -8 -8
-5 -26 2 -18 1 -28 -2 -21 -6 13 -34 6 -34 -9 0 -5 6 -6 13 -2 6 4 8 3 4 -1
-12 -14 -40 -15 -56 -2 -12 10 -13 9 -6 -3 16 -26 14 -42 -5 -47 -12 -3 -16
-11 -13 -21 5 -11 3 -13 -7 -7 -9 6 -11 4 -5 -5 4 -7 8 -26 7 -41 0 -16 4 -29
9 -29 5 0 9 -5 9 -11 0 -5 -4 -8 -8 -5 -5 3 -9 -1 -9 -9 0 -8 4 -15 8 -15 4 0
10 -7 13 -16 4 -10 2 -13 -7 -8 -6 4 -5 -1 3 -12 9 -10 22 -31 29 -45 24 -49
22 -177 -3 -162 -6 4 -5 0 2 -9 11 -14 11 -21 -3 -42 -10 -14 -21 -24 -25 -21
-5 3 -11 1 -15 -5 -4 -6 -10 -8 -15 -5 -5 3 -11 1 -15 -4 -3 -6 -12 -8 -20 -4
-8 3 -15 0 -15 -7 0 -6 -4 -9 -9 -6 -5 3 -25 -1 -44 -9 -19 -8 -37 -11 -41 -8
-3 4 -6 1 -6 -5 0 -7 -9 -12 -20 -12 -11 0 -23 -7 -26 -15 -4 -8 -10 -13 -14
-10 -11 7 -61 -20 -53 -28 3 -4 0 -7 -8 -7 -18 0 -100 -65 -92 -74 3 -3 1 -6
-5 -6 -7 0 -21 -8 -31 -17 -20 -16 -30 -20 -80 -27 -13 -2 -27 -10 -32 -17 -7
-11 -9 -11 -9 -1 0 10 -4 10 -16 -2 -8 -9 -22 -16 -30 -16 -8 0 -17 -7 -20
-15 -4 -8 -9 -13 -13 -11 -9 5 -60 -52 -52 -59 3 -4 2 -5 -4 -4 -16 5 -75 -34
-68 -44 3 -6 2 -7 -4 -4 -5 4 -19 -3 -31 -13 -12 -11 -25 -20 -30 -20 -4 0
-19 -10 -32 -22 -14 -13 -28 -22 -33 -20 -4 1 -10 -5 -13 -13 -3 -8 -10 -12
-15 -9 -5 3 -9 0 -9 -5 0 -6 -7 -11 -15 -11 -8 0 -15 -5 -15 -11 0 -5 -5 -7
-10 -4 -6 3 -13 -1 -16 -9 -3 -9 -10 -13 -15 -10 -5 3 -12 -2 -15 -10 -3 -9
-13 -16 -21 -16 -8 0 -11 -5 -7 -12 5 -7 2 -9 -9 -5 -9 3 -18 -1 -21 -10 -4
-9 -9 -13 -13 -10 -3 4 -12 2 -20 -4 -10 -9 -13 -8 -13 2 0 11 -2 11 -10 -1
-5 -8 -10 -10 -10 -5 0 6 -5 3 -10 -5 -6 -10 -10 -11 -10 -3 0 9 -7 10 -27 2
-14 -5 -32 -8 -40 -5 -7 3 -13 2 -13 -3 0 -4 -6 -8 -12 -9 -7 -1 -24 -3 -38
-5 -14 -1 -29 -5 -35 -9 -5 -3 -26 -6 -46 -6 -20 0 -45 -5 -55 -10 -11 -6 -23
-9 -29 -9 -6 1 -11 -146 -13 -420 l-2 -423 2745 0 2745 0 0 541 c0 522 -4 590
-30 574 -5 -3 -11 -1 -15 5 -4 6 -10 8 -15 5 -5 -3 -11 -1 -15 5 -3 5 -15 10
-26 10 -10 0 -19 6 -19 13 0 9 -3 8 -9 -2 -7 -11 -10 -9 -15 7 -5 13 -14 19
-26 17 -10 -2 -26 3 -37 10 -10 8 -25 15 -34 15 -8 0 -24 8 -35 18 -10 9 -26
17 -34 17 -8 -1 -34 9 -58 21 -23 13 -40 19 -38 15 3 -4 -1 -8 -8 -8 -8 0 -12
7 -8 15 3 10 1 13 -6 8 -6 -3 -13 -2 -17 4 -3 5 -15 10 -26 10 -10 0 -19 3
-19 8 0 4 -9 13 -21 20 -17 11 -20 11 -14 0 3 -7 1 -6 -7 3 -7 9 -19 14 -25
12 -7 -3 -13 2 -13 11 0 9 -11 18 -25 22 -14 4 -23 9 -20 12 3 3 -7 14 -22 24
-16 10 -24 18 -20 18 4 0 2 6 -5 14 -7 8 -16 12 -20 9 -5 -2 -8 1 -8 7 0 15
-26 41 -34 33 -3 -4 -6 1 -6 10 0 10 -7 17 -16 17 -8 0 -13 4 -10 8 3 5 -4 15
-16 23 -11 8 -31 24 -43 36 -13 12 -26 19 -29 16 -3 -4 -6 -1 -6 5 0 7 -3 11
-7 11 -19 -3 -34 2 -29 9 2 4 -5 9 -17 9 -12 1 -23 7 -25 13 -2 5 -8 8 -13 4
-5 -3 -9 1 -9 8 0 9 -3 9 -10 -2 -8 -13 -10 -12 -10 2 0 10 -3 17 -7 17 -18
-3 -34 2 -30 9 4 6 -67 7 -216 3 -22 -1 -36 -5 -32 -11 4 -6 -2 -6 -17 0 -13
6 -31 13 -40 16 -10 4 -18 10 -18 14 0 8 -52 34 -63 31 -5 -1 -6 2 -3 7 3 5
-7 15 -22 23 -44 21 -61 40 -55 57 4 9 2 13 -4 9 -11 -7 -12 35 -1 43 4 3 10
17 12 30 2 14 5 25 6 25 1 0 4 31 6 68 2 43 0 66 -6 62 -14 -9 -12 9 2 23 8 8
8 12 1 12 -10 0 -26 36 -24 53 1 4 -4 7 -11 7 -6 0 -9 3 -5 6 8 8 -18 34 -33
34 -6 0 -9 4 -6 8 3 5 -5 18 -19 30 -16 14 -25 17 -29 9 -2 -7 -5 -2 -5 11 -1
12 -6 22 -12 22 -8 0 -8 5 1 15 7 8 8 15 3 15 -5 0 -10 16 -10 35 0 21 4 32
11 28 6 -3 6 -1 -1 7 -9 10 -7 17 8 33 17 19 20 19 36 5 21 -19 62 -26 82 -14
10 6 12 5 7 -2 -5 -8 1 -12 14 -12 12 0 19 4 16 9 -3 4 6 6 21 3 17 -3 24 -1
19 6 -4 7 3 9 20 6 19 -3 24 -1 18 8 -6 10 -4 10 9 0 9 -8 21 -11 26 -8 5 4
13 1 17 -5 4 -7 3 -9 -4 -5 -6 3 -14 1 -18 -5 -4 -7 -3 -9 4 -5 5 3 12 0 15
-6 2 -7 8 -1 12 15 4 15 12 27 17 27 6 0 4 8 -3 17 -10 11 -10 14 -1 9 6 -4
12 -4 13 1 2 29 9 47 19 53 7 4 11 10 11 14 -3 19 0 26 11 23 7 -1 12 4 13 11
0 7 6 17 14 22 8 4 16 17 17 27 2 10 6 38 10 63 3 25 10 47 14 50 4 3 6 15 5
28 -1 12 2 22 7 22 4 0 8 9 8 20 0 11 4 20 9 20 6 0 8 9 6 20 -2 11 1 20 6 20
6 0 7 4 4 10 -3 6 -1 10 6 10 10 0 10 3 1 12 -9 9 -8 14 3 22 8 6 16 29 17 51
2 22 6 42 10 45 4 3 9 26 11 50 2 25 7 53 11 62 4 9 5 22 1 28 -3 5 -1 10 5
10 6 0 8 11 6 25 -3 13 -1 27 4 30 5 3 7 17 4 30 -2 14 0 25 6 25 6 0 8 5 4
11 -3 6 0 15 7 20 11 7 11 9 1 9 -7 0 -10 5 -7 10 4 6 10 8 13 6 4 -2 7 8 6
22 0 15 4 30 10 34 7 5 6 8 -3 8 -11 0 -11 3 0 17 11 12 11 17 2 20 -10 4 -9
8 2 19 8 8 12 21 9 28 -3 7 2 16 10 19 11 4 13 1 9 -10 -4 -10 -2 -14 4 -10
11 7 12 0 15 -80 0 -32 6 -61 12 -65 8 -6 8 -8 0 -8 -12 0 -13 -117 -2 -136 4
-5 3 -16 -2 -24 -5 -9 -5 -19 2 -27 7 -9 7 -13 -1 -13 -7 0 -9 -5 -4 -12 4 -7
8 -28 8 -46 1 -18 7 -38 15 -45 10 -9 11 -9 6 1 -4 6 -3 12 3 12 6 0 8 7 5 15
-4 8 -2 15 4 15 5 0 9 16 8 35 -1 20 4 37 11 40 7 2 12 10 11 17 -2 7 3 12 10
10 9 -1 8 7 -4 30 -13 26 -14 30 -3 21 13 -10 15 -8 15 12 0 14 -4 25 -9 25
-5 0 -4 7 4 16 10 13 10 17 -2 25 -12 7 -12 9 1 9 9 0 11 3 5 8 -5 4 -11 30
-13 57 -1 33 -8 55 -20 64 -16 13 -16 13 1 7 13 -4 16 -2 10 7 -4 6 -9 19 -11
27 -5 21 -2 102 4 112 3 4 -1 8 -8 8 -9 0 -9 3 2 10 11 7 11 10 2 10 -9 0 -10
5 -2 19 7 14 7 22 0 26 -6 4 -8 11 -5 16 4 5 2 9 -3 9 -10 0 -9 36 1 46 4 4 2
13 -4 20 -6 7 -9 38 -7 69 2 30 1 55 -2 55 -4 0 -7 7 -7 15 0 8 4 15 9 15 5 0
5 8 0 18 -5 9 -8 29 -7 45 1 15 -2 27 -8 27 -5 0 -4 7 3 15 9 11 9 15 1 15 -9
0 -9 5 -1 20 8 15 8 20 -2 20 -10 0 -10 2 -1 8 15 9 21 140 8 161 -5 9 -4 12
2 8 8 -5 10 13 13 133 0 32 -10 197 -15 240 -3 25 -7 57 -8 73 -1 15 -5 27 -9
27 -4 0 -3 11 2 24 5 13 6 27 2 31 -4 4 -7 10 -8 13 -6 53 -19 110 -28 121 -8
11 -8 13 0 8 8 -5 8 5 -1 30 -7 21 -11 46 -10 55 2 10 0 18 -5 18 -4 0 -8 11
-9 25 -1 14 -1 36 -2 50 -1 14 -5 25 -9 25 -4 0 -11 7 -14 16 -4 10 -2 13 7 8
6 -4 3 2 -7 14 -14 16 -15 22 -6 22 9 0 7 5 -6 16 -10 8 -12 13 -4 9 9 -4 8 0
-3 8 -10 9 -20 21 -22 29 -9 39 -19 58 -29 58 -6 0 -4 5 4 10 13 8 13 10 -2
10 -11 0 -15 5 -12 14 3 8 0 17 -5 21 -6 3 -8 11 -5 17 4 6 2 8 -3 5 -12 -8
-23 14 -23 44 0 10 -4 19 -10 19 -5 0 -10 9 -10 20 0 11 -6 20 -14 20 -10 0
-13 7 -11 20 2 12 0 18 -6 14 -6 -3 -19 3 -30 15 -11 12 -16 21 -12 21 4 0 -3
7 -15 16 -12 8 -22 24 -22 34 0 10 -10 26 -22 35 -13 8 -23 19 -24 23 -1 17
-28 62 -36 62 -5 0 -7 4 -4 9 3 5 -1 11 -9 15 -8 3 -15 13 -15 21 0 9 -4 13
-10 10 -5 -3 -10 0 -10 8 0 16 -34 50 -42 41 -4 -3 -9 5 -13 17 -9 29 -30 50
-40 41 -4 -4 -5 -2 -4 3 5 14 -24 55 -38 55 -6 0 -15 5 -19 12 -4 7 -3 8 4 4
7 -4 12 -4 12 -1 0 11 -27 34 -33 29 -3 -3 -8 3 -11 13 -3 10 -22 28 -41 41
-19 12 -35 27 -35 33 0 8 -5 7 -15 -1 -10 -9 -15 -9 -15 -1 0 6 -7 11 -15 11
-8 0 -15 5 -15 11 0 5 -4 7 -10 4 -5 -3 -10 1 -10 9 0 10 -9 16 -26 16 -14 0
-23 4 -19 10 3 6 -1 10 -10 10 -9 0 -13 5 -10 10 3 6 -1 10 -10 10 -21 0 -46
25 -37 36 4 5 -1 2 -10 -5 -12 -9 -18 -10 -18 -2 0 6 -7 11 -16 11 -8 0 -13 4
-10 9 6 10 -62 33 -103 35 -16 1 -29 6 -28 11 1 6 -6 9 -16 9 -10 -1 -16 0
-13 3 8 9 -18 31 -31 26 -7 -3 -13 2 -13 12 0 9 -5 13 -11 9 -6 -3 -15 -1 -19
6 -5 8 -19 15 -31 17 -13 2 -27 9 -31 16 -6 9 -8 9 -8 -1 0 -7 -5 -10 -12 -6
-6 4 -33 8 -60 10 -36 2 -47 0 -41 -9 5 -9 3 -9 -8 -1 -20 16 -61 25 -53 12 5
-7 -2 -9 -20 -4 -18 4 -26 2 -26 -6 0 -9 -3 -8 -10 2 -5 8 -10 11 -10 6 0 -6
-5 -5 -12 2 -9 9 -15 7 -25 -6 -8 -9 -12 -12 -9 -5 4 7 -2 12 -16 12 -54 1
-58 2 -51 14 5 9 3 9 -8 1 -17 -13 -49 -14 -49 -2 0 5 -6 6 -12 1 -19 -11 -52
-10 -60 2 -5 6 -8 4 -8 -6z m1206 -3565 c-3 -8 -2 -12 4 -9 6 3 10 2 10 -4 0
-5 -5 -13 -10 -16 -8 -5 -7 -12 2 -23 11 -13 11 -14 -1 -8 -11 7 -13 0 -9 -32
2 -22 0 -38 -4 -36 -10 6 -10 -3 -1 -34 4 -17 11 -22 25 -19 17 5 17 3 6 -11
-9 -11 -10 -14 -1 -8 7 4 27 28 44 54 18 26 41 55 53 65 12 10 14 16 6 12 -11
-5 -11 -3 1 7 9 7 18 22 20 32 2 10 14 25 26 33 21 14 21 14 21 -40 -1 -29 2
-59 6 -65 3 -6 2 -13 -3 -17 -5 -3 -8 -15 -6 -27 3 -12 -1 -28 -7 -36 -9 -10
-9 -15 1 -22 9 -5 10 -10 3 -14 -6 -3 -11 -16 -11 -29 -1 -49 -3 -57 -12 -62
-5 -4 -6 -11 -3 -17 4 -7 2 -8 -5 -4 -6 4 -8 13 -5 19 5 9 3 8 -6 0 -11 -10
-17 -10 -29 0 -8 6 -12 7 -8 1 3 -6 0 -11 -8 -11 -8 0 -12 4 -9 9 3 5 -7 7
-23 5 -15 -2 -40 2 -55 10 -22 11 -28 11 -29 1 0 -10 -2 -10 -6 0 -4 10 -8 10
-20 1 -11 -10 -14 -10 -11 2 2 8 -4 13 -13 11 -9 -1 -19 6 -23 15 -3 10 -9 24
-12 32 -4 8 -2 11 3 8 6 -4 9 7 8 23 -1 17 2 30 7 30 5 0 7 4 4 9 -4 5 -1 11
5 13 5 2 11 22 12 45 1 22 5 39 10 36 6 -4 11 20 8 40 0 4 3 7 8 7 6 0 8 9 6
20 -3 15 2 20 17 20 14 0 18 -5 14 -16z"/>
<path d="M2395 2711 c-3 -5 -2 -12 3 -15 5 -3 9 1 9 9 0 17 -3 19 -12 6z"/>
</g>
</svg>
