<svg id="visual" viewBox="0 0 960 540" width="960" height="540" xmlns="http://www.w3.org/2000/svg" xmlns:xlink="http://www.w3.org/1999/xlink" version="1.1"><rect x="0" y="0" width="960" height="540" fill="#001220"></rect><defs><linearGradient id="grad1_0" x1="43.8%" y1="0%" x2="100%" y2="100%"><stop offset="14.444444444444446%" stop-color="#fbae3c" stop-opacity="1"></stop><stop offset="85.55555555555554%" stop-color="#fbae3c" stop-opacity="1"></stop></linearGradient></defs><defs><linearGradient id="grad1_1" x1="43.8%" y1="0%" x2="100%" y2="100%"><stop offset="14.444444444444446%" stop-color="#fbae3c" stop-opacity="1"></stop><stop offset="85.55555555555554%" stop-color="#e1685e" stop-opacity="1"></stop></linearGradient></defs><defs><linearGradient id="grad1_2" x1="43.8%" y1="0%" x2="100%" y2="100%"><stop offset="14.444444444444446%" stop-color="#96446e" stop-opacity="1"></stop><stop offset="85.55555555555554%" stop-color="#e1685e" stop-opacity="1"></stop></linearGradient></defs><defs><linearGradient id="grad1_3" x1="43.8%" y1="0%" x2="100%" y2="100%"><stop offset="14.444444444444446%" stop-color="#96446e" stop-opacity="1"></stop><stop offset="85.55555555555554%" stop-color="#3d3056" stop-opacity="1"></stop></linearGradient></defs><defs><linearGradient id="grad1_4" x1="43.8%" y1="0%" x2="100%" y2="100%"><stop offset="14.444444444444446%" stop-color="#001220" stop-opacity="1"></stop><stop offset="85.55555555555554%" stop-color="#3d3056" stop-opacity="1"></stop></linearGradient></defs><defs><linearGradient id="grad2_0" x1="0%" y1="0%" x2="56.3%" y2="100%"><stop offset="14.444444444444446%" stop-color="#fbae3c" stop-opacity="1"></stop><stop offset="85.55555555555554%" stop-color="#fbae3c" stop-opacity="1"></stop></linearGradient></defs><defs><linearGradient id="grad2_1" x1="0%" y1="0%" x2="56.3%" y2="100%"><stop offset="14.444444444444446%" stop-color="#e1685e" stop-opacity="1"></stop><stop offset="85.55555555555554%" stop-color="#fbae3c" stop-opacity="1"></stop></linearGradient></defs><defs><linearGradient id="grad2_2" x1="0%" y1="0%" x2="56.3%" y2="100%"><stop offset="14.444444444444446%" stop-color="#e1685e" stop-opacity="1"></stop><stop offset="85.55555555555554%" stop-color="#96446e" stop-opacity="1"></stop></linearGradient></defs><defs><linearGradient id="grad2_3" x1="0%" y1="0%" x2="56.3%" y2="100%"><stop offset="14.444444444444446%" stop-color="#3d3056" stop-opacity="1"></stop><stop offset="85.55555555555554%" stop-color="#96446e" stop-opacity="1"></stop></linearGradient></defs><defs><linearGradient id="grad2_4" x1="0%" y1="0%" x2="56.3%" y2="100%"><stop offset="14.444444444444446%" stop-color="#3d3056" stop-opacity="1"></stop><stop offset="85.55555555555554%" stop-color="#001220" stop-opacity="1"></stop></linearGradient></defs><g transform="translate(960, 0)"><path d="M0 459C-31 416.7 -61.9 374.4 -96.8 361.3C-131.7 348.1 -170.4 364.1 -208.5 361.1C-246.6 358.1 -283.9 336.1 -306.2 306.2C-328.4 276.3 -335.5 238.5 -359.4 207.5C-383.3 176.5 -424 152.3 -443.4 118.8C-462.8 85.3 -460.9 42.7 -459 0L0 0Z" fill="#18223c"></path><path d="M0 367.2C-24.8 333.4 -49.5 299.5 -77.4 289C-105.3 278.5 -136.3 291.3 -166.8 288.9C-197.3 286.5 -227.2 268.9 -244.9 244.9C-262.7 221 -268.4 190.8 -287.5 166C-306.6 141.2 -339.2 121.8 -354.7 95C-370.2 68.3 -368.7 34.1 -367.2 0L0 0Z" fill="#683a67"></path><path d="M0 275.4C-18.6 250 -37.2 224.6 -58.1 216.8C-79 208.9 -102.3 218.5 -125.1 216.7C-147.9 214.9 -170.4 201.6 -183.7 183.7C-197 165.8 -201.3 143.1 -215.6 124.5C-230 105.9 -254.4 91.4 -266 71.3C-277.7 51.2 -276.5 25.6 -275.4 0L0 0Z" fill="#c0526a"></path><path d="M0 183.6C-12.4 166.7 -24.8 149.8 -38.7 144.5C-52.7 139.2 -68.2 145.7 -83.4 144.5C-98.6 143.2 -113.6 134.4 -122.5 122.5C-131.4 110.5 -134.2 95.4 -143.8 83C-153.3 70.6 -169.6 60.9 -177.3 47.5C-185.1 34.1 -184.4 17.1 -183.6 0L0 0Z" fill="#f6884d"></path><path d="M0 91.8C-6.2 83.3 -12.4 74.9 -19.4 72.3C-26.3 69.6 -34.1 72.8 -41.7 72.2C-49.3 71.6 -56.8 67.2 -61.2 61.2C-65.7 55.3 -67.1 47.7 -71.9 41.5C-76.7 35.3 -84.8 30.5 -88.7 23.8C-92.6 17.1 -92.2 8.5 -91.8 0L0 0Z" fill="#fbae3c"></path></g><g transform="translate(0, 540)"><path d="M0 -459C42.4 -460.4 84.8 -461.7 118.8 -443.4C152.8 -425 178.6 -386.9 208.5 -361.1C238.4 -335.4 272.6 -322 297 -297C321.3 -272 335.9 -235.5 350.7 -202.5C365.6 -169.5 380.8 -140.1 398.9 -106.9C417 -73.7 438 -36.9 459 0L0 0Z" fill="#18223c"></path><path d="M0 -367.2C33.9 -368.3 67.8 -369.4 95 -354.7C122.3 -340 142.8 -309.5 166.8 -288.9C190.8 -268.3 218.1 -257.6 237.6 -237.6C257.1 -217.6 268.7 -188.4 280.6 -162C292.5 -135.6 304.7 -112 319.1 -85.5C333.6 -59 350.4 -29.5 367.2 0L0 0Z" fill="#683a67"></path><path d="M0 -275.4C25.4 -276.2 50.9 -277 71.3 -266C91.7 -255 107.1 -232.1 125.1 -216.7C143.1 -201.2 163.6 -193.2 178.2 -178.2C192.8 -163.2 201.5 -141.3 210.4 -121.5C219.4 -101.7 228.5 -84 239.4 -64.1C250.2 -44.2 262.8 -22.1 275.4 0L0 0Z" fill="#c0526a"></path><path d="M0 -183.6C17 -184.1 33.9 -184.7 47.5 -177.3C61.1 -170 71.4 -154.8 83.4 -144.5C95.4 -134.1 109.1 -128.8 118.8 -118.8C128.5 -108.8 134.3 -94.2 140.3 -81C146.2 -67.8 152.3 -56 159.6 -42.8C166.8 -29.5 175.2 -14.7 183.6 0L0 0Z" fill="#f6884d"></path><path d="M0 -91.8C8.5 -92.1 17 -92.3 23.8 -88.7C30.6 -85 35.7 -77.4 41.7 -72.2C47.7 -67.1 54.5 -64.4 59.4 -59.4C64.3 -54.4 67.2 -47.1 70.1 -40.5C73.1 -33.9 76.2 -28 79.8 -21.4C83.4 -14.7 87.6 -7.4 91.8 0L0 0Z" fill="#fbae3c"></path></g></svg>