<svg id="visual" viewBox="0 0 900 600" width="900" height="600" xmlns="http://www.w3.org/2000/svg" xmlns:xlink="http://www.w3.org/1999/xlink" version="1.1"><path d="M0 127L82 55L164 67L245 73L327 109L409 133L491 67L573 109L655 73L736 121L818 115L900 67L900 0L818 0L736 0L655 0L573 0L491 0L409 0L327 0L245 0L164 0L82 0L0 0Z" fill="#2a375d"></path><path d="M0 163L82 157L164 163L245 163L327 145L409 175L491 103L573 169L655 115L736 175L818 181L900 151L900 65L818 113L736 119L655 71L573 107L491 65L409 131L327 107L245 71L164 65L82 53L0 125Z" fill="#194b6f"></path><path d="M0 319L82 283L164 247L245 319L327 295L409 307L491 259L573 295L655 259L736 307L818 229L900 259L900 149L818 179L736 173L655 113L573 167L491 101L409 173L327 143L245 161L164 161L82 155L0 161Z" fill="#005f7b"></path><path d="M0 427L82 397L164 505L245 529L327 457L409 421L491 385L573 487L655 499L736 505L818 403L900 385L900 257L818 227L736 305L655 257L573 293L491 257L409 305L327 293L245 317L164 245L82 281L0 317Z" fill="#00727d"></path><path d="M0 601L82 601L164 601L245 601L327 601L409 601L491 601L573 601L655 601L736 601L818 601L900 601L900 383L818 401L736 503L655 497L573 485L491 383L409 419L327 455L245 527L164 503L82 395L0 425Z" fill="#038373"></path></svg>